<svg width="52" height="49" viewBox="0 0 52 49" fill="none" xmlns="http://www.w3.org/2000/svg">
<path d="M52 45.8236C51.7286 46.7055 51.3542 47.525 50.6025 48.1166C49.9023 48.6688 49.1167 48.9714 48.2172 48.9714C33.406 48.97 18.5962 48.9728 3.78506 48.9687C1.6874 48.9687 0.0049365 47.2889 0.00357967 45.1981C-0.00184765 34.4493 -0.000490821 23.7018 0.00357967 12.953C0.0049365 10.8323 1.68333 9.16744 3.81627 9.16337C7.11744 9.15659 10.4172 9.1688 13.7184 9.14845C13.9911 9.14709 14.3181 9.03176 14.5284 8.85809C17.8174 6.14307 21.0914 3.41177 24.3668 0.681829C25.4509 -0.220463 26.5377 -0.229956 27.6205 0.669622C30.8592 3.36429 34.0993 6.05759 37.33 8.76311C37.657 9.03718 37.9785 9.17287 38.4168 9.17015C41.5985 9.15116 44.7817 9.1593 47.9634 9.16066C50.0231 9.16066 51.3569 10.1823 51.9186 12.181C51.9308 12.2271 51.9715 12.2651 51.9986 12.3058C52 23.4793 52 34.6514 52 45.8236ZM26.0506 10.6803C18.755 10.6803 11.4593 10.6803 4.16498 10.6803C2.43909 10.6803 1.52052 11.588 1.52052 13.2963C1.52052 23.8076 1.52052 34.319 1.52052 44.8304C1.52052 46.5413 2.43773 47.449 4.16226 47.449C18.7197 47.449 33.2758 47.449 47.8332 47.449C49.5781 47.449 50.4776 46.54 50.4776 44.7815C50.4776 34.3041 50.4776 23.8266 50.4776 13.3492C50.4776 11.569 49.5794 10.6803 47.7843 10.6803C40.5402 10.6803 33.2947 10.6803 26.0506 10.6803ZM23.8078 3.14854C21.4361 5.12409 19.0697 7.09692 16.6451 9.11724C22.9259 9.11724 29.1008 9.11724 35.3626 9.11724C32.9257 7.08878 30.5621 5.12002 28.1931 3.14854C27.1768 5.08338 24.7983 5.05353 23.8078 3.14854ZM26.7318 2.28968C26.7263 1.8867 26.3912 1.54613 25.9991 1.54477C25.607 1.54477 25.2718 1.88534 25.2664 2.28832C25.261 2.71436 25.6151 3.07528 26.0235 3.05764C26.417 3.04407 26.7372 2.69537 26.7318 2.28968Z" fill="black"/>
<path d="M4.56691 44.3842C18.8801 44.3842 33.1241 44.3842 47.3993 44.3842C47.3993 34.17 47.3993 23.9762 47.3993 13.7538C33.1404 13.7538 18.895 13.7538 4.56691 13.7538C4.56691 13.9356 4.56691 14.1297 4.56691 14.3223C4.56691 18.6208 4.56691 22.9206 4.56691 27.219C4.56691 27.371 4.5832 27.527 4.5547 27.6749C4.47736 28.0792 4.19921 28.3031 3.80709 28.3031C3.41497 28.3031 3.13817 28.0806 3.05812 27.6762C3.03234 27.546 3.04727 27.4062 3.04727 27.2706C3.04727 22.599 3.04727 17.9288 3.04727 13.2572C3.04727 12.4228 3.26165 12.207 4.09202 12.207C18.6983 12.207 33.3032 12.207 47.9095 12.207C48.7344 12.207 48.9502 12.4255 48.9502 13.2626C48.9502 23.7903 48.9502 34.3166 48.9502 44.8442C48.9502 45.7126 48.7412 45.9229 47.881 45.9229C33.2924 45.9229 18.7024 45.9229 4.11373 45.9229C3.2535 45.9229 3.04727 45.7139 3.04727 44.8415C3.04727 40.1876 3.04727 35.5336 3.04727 30.8784C3.04727 30.7427 3.03505 30.6056 3.05676 30.4727C3.12325 30.0643 3.39461 29.8336 3.78674 29.8268C4.20328 29.8187 4.48958 30.0493 4.55877 30.4822C4.5832 30.6314 4.56691 30.7861 4.56691 30.9381C4.56691 35.2026 4.56691 39.4685 4.56691 43.733C4.56691 43.9338 4.56691 44.1346 4.56691 44.3842Z" fill="black"/>
<path d="M35.9453 34.6635C35.9385 34.8222 35.9249 34.981 35.9249 35.1397C35.9235 37.0529 35.9263 38.9646 35.9208 40.8778C35.9208 41.0949 35.9466 41.3689 35.8313 41.5155C35.6617 41.7312 35.3781 41.9863 35.142 41.9863C34.9059 41.9863 34.6346 41.7271 34.4473 41.5196C34.3442 41.4069 34.3605 41.1654 34.3605 40.9836C34.3564 37.6146 34.3578 34.2469 34.3578 30.8779C34.3578 30.8101 34.3564 30.7423 34.3591 30.6744C34.3808 30.2389 34.5681 29.9146 35.0199 29.8373C35.4487 29.764 35.7227 29.9946 35.8856 30.3786C36.4839 31.7762 37.0823 33.1723 37.682 34.5685C38.0578 35.445 38.4377 36.3202 38.9059 37.1777C38.9126 37.0189 38.9262 36.8602 38.9262 36.7015C38.9276 34.7883 38.9249 32.8766 38.9303 30.9634C38.9303 30.7463 38.9045 30.4736 39.0185 30.3257C39.1867 30.1086 39.4717 29.8549 39.7077 29.8549C39.9438 29.8535 40.2084 30.1181 40.4052 30.3189C40.5001 30.4166 40.4906 30.6391 40.4906 30.806C40.4947 34.209 40.4933 37.6105 40.4933 41.0135C40.4933 41.0637 40.4947 41.1152 40.492 41.1654C40.4676 41.5996 40.283 41.9266 39.8312 42.0026C39.4025 42.0759 39.1284 41.8466 38.9642 41.4626C38.3672 40.065 37.7688 38.6689 37.1691 37.2727C36.7933 36.3962 36.4134 35.521 36.0348 34.6459C36.005 34.6513 35.9751 34.6567 35.9453 34.6635Z" fill="black"/>
<path d="M36.6653 23.5514C36.6653 22.1484 36.6653 20.7441 36.6653 19.3412C36.6653 18.5623 36.6626 17.7849 36.6667 17.0061C36.6694 16.4565 36.9598 16.1133 37.4129 16.1051C37.8675 16.097 38.1728 16.443 38.185 16.9816C38.1863 17.0658 38.185 17.1512 38.185 17.2354C38.185 20.5515 38.185 23.8675 38.185 27.1836C38.185 27.9095 38.0235 28.1972 37.5622 28.2908C37.1226 28.3804 36.858 28.1687 36.5663 27.4889C35.6884 25.4415 34.8092 23.3954 33.9313 21.3479C33.8594 21.181 33.7834 21.0169 33.6152 20.8527C33.6152 20.9911 33.6152 21.1308 33.6152 21.2692C33.6152 23.3167 33.6179 25.3628 33.6138 27.4102C33.6125 28.0859 33.1009 28.516 32.584 28.227C32.3547 28.0995 32.1186 27.7427 32.1159 27.4876C32.086 23.9693 32.0955 20.4497 32.0942 16.9314C32.0942 16.4972 32.2936 16.2137 32.7169 16.1323C33.1742 16.0441 33.4442 16.2951 33.6152 16.6953C34.5256 18.8215 35.4374 20.9463 36.3505 23.0711C36.4225 23.238 36.4984 23.4035 36.5717 23.569C36.6029 23.5623 36.6341 23.5568 36.6653 23.5514Z" fill="black"/>
<path d="M24.4853 20.2173C24.9507 19.1373 25.3727 18.1522 25.7974 17.1685C25.8978 16.9365 25.9494 16.6407 26.1244 16.4928C26.3415 16.3096 26.6956 16.1183 26.9317 16.1767C27.1664 16.2337 27.351 16.5797 27.507 16.8293C27.5762 16.9392 27.5206 17.1265 27.5206 17.2798C27.5206 20.5633 27.5206 23.8468 27.5206 27.1317C27.5206 27.2498 27.5233 27.3692 27.5192 27.4872C27.5016 27.9852 27.1854 28.3217 26.7472 28.3135C26.3089 28.3054 26.0036 27.9702 26.0023 27.4614C25.9969 25.4465 25.9996 23.433 25.9996 21.4181C25.9996 21.2336 25.9996 21.049 25.9996 20.8645C25.9684 20.8537 25.9385 20.8442 25.9073 20.8333C25.6929 21.3326 25.4758 21.8306 25.2642 22.3312C25.1095 22.6976 24.8978 22.9798 24.4487 22.9676C24.0254 22.9567 23.83 22.6772 23.6848 22.3312C23.4759 21.836 23.2628 21.3421 22.9765 20.8496C22.9671 20.9866 22.9508 21.1237 22.9508 21.2607C22.9494 23.2919 22.9508 25.3231 22.9494 27.3542C22.9494 27.9499 22.6726 28.2986 22.2059 28.3108C21.7215 28.323 21.4338 27.9621 21.4298 27.3366C21.4298 27.2348 21.4298 27.1331 21.4298 27.0313C21.4298 24.0015 21.4298 20.9717 21.4298 17.9419C21.4298 17.6203 21.4379 17.2988 21.4284 16.9772C21.4148 16.5254 21.6062 16.2187 22.0553 16.1292C22.4881 16.0423 22.769 16.2716 22.9331 16.6502C23.3565 17.6258 23.7689 18.6068 24.1882 19.585C24.2642 19.7655 24.3537 19.9392 24.4853 20.2173Z" fill="black"/>
<path d="M19.1235 35.909C19.1235 34.9117 19.1017 33.9131 19.1289 32.9172C19.1764 31.1574 20.4816 29.8372 22.1641 29.8114C23.8072 29.7856 25.1898 31.0719 25.24 32.8114C25.3011 34.8887 25.3011 36.9714 25.2373 39.0487C25.1858 40.704 24.0257 41.8451 22.3961 42.0175C21.0393 42.1613 19.6228 41.1939 19.2727 39.7977C19.1275 39.2183 19.1479 38.5942 19.1275 37.989C19.1058 37.2957 19.1221 36.6023 19.1235 35.909ZM23.6933 35.9606C23.6933 34.9972 23.6933 34.0325 23.6933 33.0692C23.6933 33.0352 23.6933 33.0013 23.6933 32.9674C23.6729 32.0013 23.0664 31.3677 22.1695 31.3772C21.3039 31.3867 20.6974 32.023 20.6933 32.9633C20.6852 34.9239 20.6852 36.8859 20.692 38.8465C20.696 39.8194 21.3025 40.4625 22.1885 40.4639C23.0786 40.4652 23.681 39.8262 23.6905 38.852C23.6987 37.8873 23.6919 36.9239 23.6933 35.9606Z" fill="black"/>
<path d="M26.7401 35.9161C26.7401 34.9188 26.7197 33.9202 26.7455 32.9243C26.7903 31.1631 28.0901 29.8443 29.7753 29.813C31.436 29.7818 32.82 31.098 32.8621 32.8578C32.9109 34.9025 32.9109 36.95 32.8621 38.9933C32.8214 40.6663 31.6681 41.8386 30.0195 42.0177C28.6627 42.1643 27.2706 41.1955 26.8825 39.8061C26.7889 39.4696 26.7523 39.1073 26.7455 38.7559C26.7278 37.8088 26.7387 36.8618 26.7401 35.9161ZM31.3099 35.9188C31.3099 34.9554 31.3153 33.9907 31.3085 33.0274C31.3017 32.0165 30.7047 31.3707 29.7956 31.3761C28.9096 31.3815 28.3126 32.0247 28.3099 33.003C28.3031 34.9473 28.3031 36.8916 28.3099 38.836C28.3126 39.8129 28.9123 40.4574 29.797 40.4614C30.6898 40.4669 31.2976 39.8305 31.3071 38.859C31.3166 37.8807 31.3085 36.8998 31.3099 35.9188Z" fill="black"/>
<path d="M13.8138 22.1956C13.8138 21.1645 13.8057 20.1333 13.8152 19.1021C13.8301 17.4427 15.2317 16.0763 16.8829 16.0994C18.5342 16.1225 19.891 17.4617 19.9005 19.1021C19.9114 21.1807 19.9141 23.2608 19.8992 25.3394C19.8883 26.969 18.4976 28.3177 16.8585 28.3177C15.2208 28.3177 13.8341 26.9663 13.8165 25.3394C13.8057 24.2919 13.8138 23.2445 13.8138 22.1956ZM18.3836 22.2079C18.3836 21.2594 18.3877 20.3124 18.3822 19.3639C18.3768 18.33 17.7662 17.6598 16.8436 17.6652C15.9454 17.6706 15.3362 18.3395 15.3334 19.3409C15.328 21.254 15.328 23.1658 15.3334 25.0789C15.3362 26.0789 15.9481 26.7478 16.8463 26.7532C17.75 26.7587 18.3741 26.0952 18.3809 25.102C18.3904 24.1373 18.3836 23.1726 18.3836 22.2079Z" fill="black"/>
<path d="M44.2393 22.9677C43.9734 22.9677 43.736 22.9786 43.5012 22.965C43.0643 22.9392 42.7685 22.638 42.7604 22.2255C42.7523 21.809 43.0399 21.4738 43.4687 21.4576C44.0087 21.4358 44.5514 21.4331 45.0914 21.4589C45.5215 21.4793 45.7875 21.7452 45.7943 22.1767C45.8106 23.3096 45.8404 24.4453 45.7848 25.5755C45.7088 27.0857 44.2597 28.3489 42.7238 28.3204C41.1132 28.2892 39.7333 26.9744 39.7184 25.4086C39.698 23.2784 39.698 21.1468 39.7184 19.0153C39.7333 17.4278 41.1593 16.0886 42.7713 16.1022C44.394 16.1157 45.7997 17.4807 45.8011 19.0451C45.8011 19.5621 45.5324 19.8958 45.0928 19.9216C44.641 19.9488 44.3465 19.6679 44.2814 19.1469C44.1593 18.1727 43.5324 17.6137 42.6274 17.6706C41.8106 17.7222 41.2367 18.383 41.234 19.3043C41.2272 21.2486 41.2258 23.1943 41.234 25.1386C41.238 26.0938 41.8703 26.7519 42.7509 26.7546C43.6342 26.7573 44.2651 26.1033 44.28 25.1508C44.2909 24.4914 44.2814 23.832 44.2787 23.1726C44.28 23.1224 44.2611 23.0749 44.2393 22.9677Z" fill="black"/>
<path d="M14.5961 42.0288C12.9923 42.0478 11.607 40.7384 11.5174 39.1184C11.4903 38.6231 11.7685 38.2554 12.2026 38.2107C12.6694 38.1632 12.9855 38.4495 13.071 38.9976C13.2026 39.8429 13.6395 40.3517 14.3193 40.4494C15.0072 40.5471 15.6273 40.2337 15.9244 39.6367C16.2284 39.0248 16.1076 38.3233 15.5662 37.8321C14.6015 36.9569 13.6178 36.1021 12.6395 35.2419C12.0317 34.7073 11.6599 34.0547 11.5459 33.2447C11.3234 31.6572 12.4632 30.1239 14.0737 29.8729C15.7358 29.6138 17.2948 30.6911 17.5635 32.2949C17.6015 32.5255 17.6354 32.7684 17.6028 32.9964C17.5486 33.3708 17.307 33.6029 16.919 33.6286C16.5106 33.6558 16.2419 33.459 16.1266 33.0656C16.094 32.9529 16.0818 32.8335 16.0655 32.7169C15.9706 32.0262 15.4875 31.4971 14.8539 31.3953C14.1768 31.2854 13.5378 31.5961 13.2338 32.1823C12.9218 32.7847 13.033 33.5106 13.5608 33.9909C14.5255 34.8661 15.5092 35.7209 16.4875 36.5811C17.0791 37.1021 17.4658 37.729 17.5838 38.5227C17.8566 40.349 16.4509 42.0071 14.5961 42.0288Z" fill="black"/>
<path d="M6.19963 22.2122C6.19963 21.1295 6.17928 20.0454 6.20505 18.964C6.24169 17.4091 7.66907 16.0861 9.25928 16.0997C10.8427 16.1146 12.2307 17.4199 12.285 18.945C12.3067 19.5393 12.0476 19.8934 11.574 19.9192C11.1086 19.945 10.8413 19.6695 10.764 19.0875C10.646 18.1852 10.0191 17.6316 9.15752 17.6655C8.32985 17.6994 7.72606 18.3507 7.72063 19.2584C7.71114 21.2217 7.71114 23.1837 7.72063 25.1471C7.7247 26.0561 8.32307 26.7101 9.14802 26.7481C10.03 26.7888 10.6473 26.2312 10.7654 25.2841C10.8318 24.7509 11.1114 24.4754 11.5645 24.4958C12.0272 24.5161 12.2945 24.854 12.285 25.4103C12.2619 26.9584 10.8739 28.2935 9.26606 28.3153C7.68264 28.337 6.24305 27.0113 6.20505 25.4578C6.17792 24.3791 6.19963 23.2963 6.19963 22.2122Z" fill="black"/>
<path d="M30.5681 22.2611C30.5681 23.953 30.5695 25.645 30.5681 27.337C30.5681 27.9625 30.2778 28.3234 29.7947 28.3139C29.328 28.3044 29.0498 27.9543 29.0498 27.36C29.0485 23.9259 29.0485 20.4917 29.0498 17.0563C29.0498 16.4633 29.3294 16.1133 29.7975 16.1051C30.2805 16.097 30.5681 16.4579 30.5681 17.0848C30.5695 18.8106 30.5681 20.5352 30.5681 22.2611Z" fill="black"/>
</svg>
