<svg xmlns="http://www.w3.org/2000/svg" xmlns:xlink="http://www.w3.org/1999/xlink" viewBox="4.5 2.79998779296875 19 22" version="1.1" x="0px" y="0px" preserveAspectRatio="xMidYMid meet" style="width: 100%; height: 100%;" fill="rgb(4,4,5)" fill-opacity="1"><title>i28_privacy</title><desc>Created with Sketch.</desc><g stroke="none" stroke-width="1" fill-rule="evenodd"><g transform="translate(-242.000000, -327.000000)" fill-rule="nonzero"><g transform="translate(242.000000, 327.000000)"><path d="M15.299042,2.87671626 C14.7556275,2.81591804 14.2108262,2.79149817 13.6599986,2.80259832 C12.1533264,2.82890095 10.7072168,3.11884137 9.3576122,3.64344659 C8.9013232,3.82081083 8.47911983,4.01666943 8.10071473,4.22373094 C7.90635061,4.33008608 7.74726278,4.42588094 7.65162556,4.49157053 C7.30993362,4.70854239 7.21770011,5.20725615 7.45634593,5.55485045 C7.69466703,5.91999512 8.17259103,5.99879301 8.54732364,5.73957308 C8.62328661,5.68409227 8.75027276,5.60337266 8.90757099,5.51284249 C9.21782318,5.33428242 9.56700933,5.16512482 9.94692911,5.01182969 C12.8915745,3.82368468 16.1735491,4.0235046 19.5971125,5.78910606 C19.9528071,5.99538225 20.4301464,5.86687216 20.6391988,5.50239935 C20.8693413,5.14360024 20.7182781,4.67437608 20.3006135,4.44369001 C18.6500373,3.58405776 16.9747208,3.06331411 15.299042,2.87671626 Z M6.91760558,8.03848314 C6.27160054,8.56313027 5.69444577,9.14222763 5.19756327,9.75430447 C4.94315012,10.0676993 4.7405585,10.3498054 4.62523444,10.5412686 C4.3954216,10.8876751 4.49081152,11.3540499 4.83833432,11.5871157 C5.19373547,11.8172608 5.66907607,11.7045188 5.95626294,11.3266071 C6.05970919,11.1526987 6.22505586,10.9178241 6.43665946,10.6528689 C6.85253807,10.1321349 7.33890215,9.63899139 7.88572479,9.19235136 C9.63153505,7.76638855 11.7002722,7.03027357 14.0531319,7.06990989 C16.380257,7.1002867 18.4115401,7.82844933 20.1132662,9.17783246 C20.6722284,9.62106135 21.1665993,10.1103914 21.5864629,10.6270828 C21.7992561,10.8889498 21.9673894,11.1245799 22.0580798,11.2787658 C22.2825681,11.6363224 22.7485784,11.7553613 23.1153439,11.5499617 C23.4925051,11.3402938 23.6083588,10.8835283 23.3910828,10.4918826 C23.2744485,10.2996343 23.0715574,10.0208309 22.8142143,9.70929299 C22.313873,9.10358302 21.7301665,8.53052067 21.0744712,8.01137213 C19.0789275,6.43139503 16.7314333,5.57820374 14.0777478,5.54282283 C11.372596,5.50693728 8.96900206,6.37246009 6.91760558,8.03848314 Z M8.46363398,9.99771823 C5.42522454,12.483251 4.48600953,16.5453996 6.06184913,21.0776788 C6.19618087,21.4759746 6.63631626,21.6877766 7.04420259,21.5534091 C7.44611273,21.4168772 7.66263571,20.9732315 7.51424139,20.582097 C6.11786042,16.576258 6.83833936,13.3213428 9.44888491,11.1500837 C11.6449545,9.37636526 15.3076078,9.17694973 17.8675321,10.7398535 C19.1147745,11.5163247 20.1931836,12.8928154 20.7545276,14.4017938 C21.2533763,15.7164885 21.2839061,17.1061439 20.8407363,17.7684502 C20.440561,18.3805 19.6063189,18.6595765 18.8080296,18.4597114 C17.9214952,18.2377527 17.4390507,17.6111762 17.4120561,16.5973218 C17.3822462,14.917722 16.1083029,13.6136909 14.3854444,13.4176981 C12.7166121,13.2207665 11.1729534,14.1956015 10.775676,15.7660927 C9.83726583,19.3293122 12.4919823,23.4480663 16.7645272,24.7664091 C17.1713488,24.8882501 17.6006156,24.6686556 17.7353455,24.2692565 C17.8642725,23.848975 17.6354832,23.4185611 17.2163501,23.3001962 C13.7846325,22.2463888 11.5557516,18.8585367 12.2668189,16.1242417 C12.4824423,15.2718622 13.2164537,14.8415614 14.238259,14.9333807 C15.256078,15.0490486 15.861089,15.6594736 15.8610666,16.6201678 C15.9114247,18.254894 16.9466341,19.5666114 18.4276146,19.9385194 C19.8667187,20.2999112 21.3601963,19.7724835 22.1325642,18.6020594 C22.9076211,17.4531023 22.9230298,15.7819532 22.2070298,13.8749888 C21.4990604,12.0091761 20.2413422,10.4171152 18.6791238,9.44355709 C17.0900812,8.46458258 15.2045933,8.01345784 13.3040739,8.1468233 C11.477651,8.27575664 9.75252244,8.93446837 8.46363398,9.99771823 Z M13.6807011,10.7086977 C11.5742233,10.7824684 9.75404423,11.9147833 8.7347549,13.8307287 C7.54746366,16.0441626 7.64218236,18.5397204 8.90299424,21.1309327 C9.08949984,21.5120029 9.29941089,21.8892718 9.53146026,22.2617923 C9.87216694,22.8087458 10.2481844,23.3270096 10.6455819,23.8036567 C10.8488884,24.0475069 11.0318864,24.2504259 11.1553116,24.3734235 C11.4471947,24.673936 11.9272538,24.6788746 12.2368409,24.3851514 C12.5428497,24.0948231 12.5493636,23.6398577 12.254906,23.3123988 C12.1449655,23.2004239 11.9870298,23.0224722 11.8101547,22.8074677 C11.4630142,22.3854934 11.134314,21.9281158 10.8366652,21.4474965 C10.6364704,21.1242381 10.4551583,20.7977033 10.2940122,20.4691057 C9.23026524,18.2999881 9.13601852,16.333527 10.0904758,14.5517759 C11.1421675,12.6029475 13.0797821,11.8058327 15.1523841,12.3993833 C17.2173534,12.9955689 18.5454072,14.7250475 18.5166266,16.8770571 C18.4677452,17.2931406 18.7824177,17.6599656 19.2138868,17.6843589 C19.641707,17.7217363 20.0005039,17.3896276 20.0356667,16.9155818 C20.0956875,14.0979858 18.2838123,11.7126591 15.5826962,10.9330719 C14.937131,10.7539736 14.301953,10.6776852 13.6807011,10.7086977 Z M13.1734305,16.7302755 C13.1779912,16.9530179 13.2165896,17.2860492 13.2878396,17.655829 C13.4273058,18.3796442 13.6632561,19.064483 13.996862,19.6856936 C14.023988,19.7362053 14.0517142,19.7861757 14.0796473,19.8349247 C15.2407056,21.7883817 17.4201745,22.775874 20.2601358,22.5133446 C20.6845557,22.4887597 21.0054104,22.1348239 20.981396,21.7076255 C20.9562041,21.2719265 20.5782281,20.9622625 20.1139364,20.9975529 C17.7459131,21.2126364 16.3168622,20.5950176 15.4105411,19.0654237 C15.363927,18.9874595 15.3196934,18.9078868 15.2775316,18.8262129 C15.048177,18.3819175 14.8860308,17.8904404 14.7908487,17.3714847 C14.7425072,17.1079151 14.7164039,16.8704873 14.7137405,16.7134657 C14.7137617,16.2859938 14.3654458,15.9477159 13.9238796,15.9473724 C13.497363,15.9598365 13.160931,16.3101991 13.1734305,16.7302755 Z"/></g></g></g></svg>